<svg version="1.1" xmlns="http://www.w3.org/2000/svg" xmlns:xlink="http://www.w3.org/1999/xlink" width="759.8046875" height="1008"><defs/><g><g transform="translate(-62,-62) scale(1,1)"><rect fill="#C0C0C0" stroke="none" x="335" y="79" width="483.8046875" height="145" opacity="0.2"/></g><g transform="translate(-62,-62) scale(1,1)"><rect fill="#ffffff" stroke="none" x="328" y="72" width="483.8046875" height="145"/></g><g transform="translate(-62,-62) scale(1,1)"><path fill="none" stroke="#000000" d="M 328 72 L 811.8046875 72 L 811.8046875 217 L 328 217 L 328 72 Z Z" stroke-miterlimit="10"/></g><g transform="translate(-62,-62) scale(1,1)"><path fill="none" stroke="#000000" d="M 328 97 L 811.8046875 97" stroke-miterlimit="10"/></g><g transform="translate(-62,-62) scale(1,1)"><path fill="none" stroke="#000000" d="M 328 120 L 811.8046875 120" stroke-miterlimit="10"/></g><g transform="translate(-62,-62) scale(1,1)"><g><path fill="none" stroke="none"/><text fill="#000000" stroke="none" font-family="Arial" font-size="13px" font-style="normal" font-weight="bold" text-decoration="none" x="553.2841796875" y="91.5">Poller</text></g></g><g transform="translate(-62,-62) scale(1,1)"><g><path fill="none" stroke="none"/><text fill="#000000" stroke="none" font-family="Arial" font-size="13px" font-style="normal" font-weight="normal" text-decoration="none" x="333" y="114.5">+int multiplexer_</text></g></g><g transform="translate(-62,-62) scale(1,1)"><g><path fill="none" stroke="none"/><text fill="#000000" stroke="none" font-family="Arial" font-size="13px" font-style="normal" font-weight="normal" text-decoration="none" x="333" y="137.5">+Poller()</text></g></g><g transform="translate(-62,-62) scale(1,1)"><g><path fill="none" stroke="none"/><text fill="#000000" stroke="none" font-family="Arial" font-size="13px" font-style="normal" font-weight="normal" text-decoration="none" x="333" y="152.5">~virtual bool ModSocket(int sock, int events, void* userPtr)</text></g></g><g transform="translate(-62,-62) scale(1,1)"><g><path fill="none" stroke="none"/><text fill="#000000" stroke="none" font-family="Arial" font-size="13px" font-style="normal" font-weight="normal" text-decoration="none" x="333" y="167.5">+virtual bool AddSocket(int sock, int events, void* userPtr)</text></g></g><g transform="translate(-62,-62) scale(1,1)"><g><path fill="none" stroke="none"/><text fill="#000000" stroke="none" font-family="Arial" font-size="13px" font-style="normal" font-weight="normal" text-decoration="none" x="333" y="182.5">+virtual bool DelSocket(int sock, int events)</text></g></g><g transform="translate(-62,-62) scale(1,1)"><g><path fill="none" stroke="none"/><text fill="#000000" stroke="none" font-family="Arial" font-size="13px" font-style="normal" font-weight="normal" text-decoration="none" x="333" y="197.5">+~Poller()</text></g></g><g transform="translate(-62,-62) scale(1,1)"><g><path fill="none" stroke="none"/><text fill="#000000" stroke="none" font-family="Arial" font-size="13px" font-style="normal" font-weight="normal" text-decoration="none" x="333" y="212.5">+virtual int Poll(std::vector&lt;FiredEvent&gt;&amp; events, std::size_t maxEv, int timeoutMs)</text></g></g><g transform="translate(-62,-62) scale(1,1)"><rect fill="#C0C0C0" stroke="none" x="127" y="295" width="125.34619140625" height="90" opacity="0.2"/></g><g transform="translate(-62,-62) scale(1,1)"><rect fill="#ffffff" stroke="none" x="120" y="288" width="125.34619140625" height="90"/></g><g transform="translate(-62,-62) scale(1,1)"><path fill="none" stroke="#000000" d="M 120 288 L 245.34619140625 288 L 245.34619140625 378 L 120 378 L 120 288 Z Z" stroke-miterlimit="10"/></g><g transform="translate(-62,-62) scale(1,1)"><path fill="none" stroke="#000000" d="M 120 326 L 245.34619140625 326" stroke-miterlimit="10"/></g><g transform="translate(-62,-62) scale(1,1)"><g><path fill="none" stroke="none"/><text fill="#000000" stroke="none" font-family="Arial" font-size="13px" font-style="normal" font-weight="normal" text-decoration="none" x="139.30908203125" y="305.5">«enumeration»</text></g></g><g transform="translate(-62,-62) scale(1,1)"><g><path fill="none" stroke="none"/><text fill="#000000" stroke="none" font-family="Arial" font-size="13px" font-style="normal" font-weight="bold" text-decoration="none" x="151.9599609375" y="320.5">EventType</text></g></g><g transform="translate(-62,-62) scale(1,1)"><g><path fill="none" stroke="none"/><text fill="#000000" stroke="none" font-family="Arial" font-size="13px" font-style="normal" font-weight="normal" text-decoration="none" x="125" y="343.5">EventTypeRead</text></g></g><g transform="translate(-62,-62) scale(1,1)"><g><path fill="none" stroke="none"/><text fill="#000000" stroke="none" font-family="Arial" font-size="13px" font-style="normal" font-weight="normal" text-decoration="none" x="125" y="358.5">EventTypeWrite</text></g></g><g transform="translate(-62,-62) scale(1,1)"><g><path fill="none" stroke="none"/><text fill="#000000" stroke="none" font-family="Arial" font-size="13px" font-style="normal" font-weight="normal" text-decoration="none" x="125" y="373.5">EventTypeError</text></g></g><g transform="translate(-62,-62) scale(1,1)"><rect fill="#C0C0C0" stroke="none" x="135" y="103" width="104" height="88" opacity="0.2"/></g><g transform="translate(-62,-62) scale(1,1)"><rect fill="#ffffff" stroke="none" x="128" y="96" width="104" height="88"/></g><g transform="translate(-62,-62) scale(1,1)"><path fill="none" stroke="#000000" d="M 128 96 L 232 96 L 232 184 L 128 184 L 128 96 Z Z" stroke-miterlimit="10"/></g><g transform="translate(-62,-62) scale(1,1)"><path fill="none" stroke="#000000" d="M 128 121 L 232 121" stroke-miterlimit="10"/></g><g transform="translate(-62,-62) scale(1,1)"><path fill="none" stroke="#000000" d="M 128 159 L 232 159" stroke-miterlimit="10"/></g><g transform="translate(-62,-62) scale(1,1)"><g><path fill="none" stroke="none"/><text fill="#000000" stroke="none" font-family="Arial" font-size="13px" font-style="normal" font-weight="bold" text-decoration="none" x="148.569580078125" y="115.5">FiredEvent</text></g></g><g transform="translate(-62,-62) scale(1,1)"><g><path fill="none" stroke="none"/><text fill="#000000" stroke="none" font-family="Arial" font-size="13px" font-style="normal" font-weight="normal" text-decoration="none" x="133" y="138.5">+int events</text></g></g><g transform="translate(-62,-62) scale(1,1)"><g><path fill="none" stroke="none"/><text fill="#000000" stroke="none" font-family="Arial" font-size="13px" font-style="normal" font-weight="normal" text-decoration="none" x="133" y="153.5">+void* userdata</text></g></g><g transform="translate(-62,-62) scale(1,1)"><g><path fill="none" stroke="none"/><text fill="#000000" stroke="none" font-family="Arial" font-size="13px" font-style="normal" font-weight="normal" text-decoration="none" x="133" y="176.5">+FiredEvent()</text></g></g><g transform="translate(-62,-62) scale(1,1)"><rect fill="#C0C0C0" stroke="none" x="335" y="279" width="483.8046875" height="145" opacity="0.2"/></g><g transform="translate(-62,-62) scale(1,1)"><rect fill="#ffffff" stroke="none" x="328" y="272" width="483.8046875" height="145"/></g><g transform="translate(-62,-62) scale(1,1)"><path fill="none" stroke="#000000" d="M 328 272 L 811.8046875 272 L 811.8046875 417 L 328 417 L 328 272 Z Z" stroke-miterlimit="10"/></g><g transform="translate(-62,-62) scale(1,1)"><path fill="none" stroke="#000000" d="M 328 297 L 811.8046875 297" stroke-miterlimit="10"/></g><g transform="translate(-62,-62) scale(1,1)"><path fill="none" stroke="#000000" d="M 328 320 L 811.8046875 320" stroke-miterlimit="10"/></g><g transform="translate(-62,-62) scale(1,1)"><g><path fill="none" stroke="none"/><text fill="#000000" stroke="none" font-family="Arial" font-size="13px" font-style="normal" font-weight="bold" text-decoration="none" x="549.669189453125" y="291.5">Epoller</text></g></g><g transform="translate(-62,-62) scale(1,1)"><g><path fill="none" stroke="none"/><text fill="#000000" stroke="none" font-family="Arial" font-size="13px" font-style="normal" font-weight="normal" text-decoration="none" x="333" y="314.5">-std::vector&lt;epoll_event&gt; events_</text></g></g><g transform="translate(-62,-62) scale(1,1)"><g><path fill="none" stroke="none"/><text fill="#000000" stroke="none" font-family="Arial" font-size="13px" font-style="normal" font-weight="normal" text-decoration="none" x="333" y="337.5">~bool ModSocket(int sock, int events, void* userPtr)</text></g></g><g transform="translate(-62,-62) scale(1,1)"><g><path fill="none" stroke="none"/><text fill="#000000" stroke="none" font-family="Arial" font-size="13px" font-style="normal" font-weight="normal" text-decoration="none" x="333" y="352.5">+bool AddSocket(int sock, int events, void* userPtr)</text></g></g><g transform="translate(-62,-62) scale(1,1)"><g><path fill="none" stroke="none"/><text fill="#000000" stroke="none" font-family="Arial" font-size="13px" font-style="normal" font-weight="normal" text-decoration="none" x="333" y="367.5">+bool DelSocket(int sock, int events)</text></g></g><g transform="translate(-62,-62) scale(1,1)"><g><path fill="none" stroke="none"/><text fill="#000000" stroke="none" font-family="Arial" font-size="13px" font-style="normal" font-weight="normal" text-decoration="none" x="333" y="382.5">+int Poll(std::vector&lt;FiredEvent&gt;&amp; events, std::size_t maxEv, int timeoutMs)</text></g></g><g transform="translate(-62,-62) scale(1,1)"><g><path fill="none" stroke="none"/><text fill="#000000" stroke="none" font-family="Arial" font-size="13px" font-style="normal" font-weight="normal" text-decoration="none" x="333" y="397.5">+Epoller()</text></g></g><g transform="translate(-62,-62) scale(1,1)"><g><path fill="none" stroke="none"/><text fill="#000000" stroke="none" font-family="Arial" font-size="13px" font-style="normal" font-weight="normal" text-decoration="none" x="333" y="412.5">+~Epoller()</text></g></g><g transform="translate(-62,-62) scale(1,1)"><path fill="none" stroke="#000000" d="M 327 142 L 233 141" stroke-miterlimit="10"/></g><g transform="translate(-62,-62) scale(1,1)"><path fill="none" stroke="#000000" d="M 569 271 L 569 218" stroke-miterlimit="10"/></g><g transform="translate(-62,-62) scale(1,1)"><path fill="#FFFFFF" stroke="none" d="M 577.419035512032 238.3253497152483 L 569 218 L 560.580964487968 238.3253497152483"/></g><g transform="translate(-62,-62) scale(1,1)"><path fill="none" stroke="#000000" d="M 577.419035512032 238.3253497152483 L 569 218 L 560.580964487968 238.3253497152483 L 577.419035512032 238.3253497152483" stroke-miterlimit="10"/></g><g transform="translate(-62,-62) scale(1,1)"><path fill="none" stroke="#000000" d="M 327 337 L 246 335" stroke-miterlimit="10"/></g><g transform="translate(-62,-62) scale(1,1)"><path fill="none" stroke="#000000" d="M 256.2634854098778 331.042618638389 L 246 335 L 256.05567132847017 339.45908893539735" stroke-miterlimit="10"/></g><g transform="translate(-62,-62) scale(1,1)"><rect fill="#C0C0C0" stroke="none" x="343" y="543" width="223.95703125" height="235" opacity="0.2"/></g><g transform="translate(-62,-62) scale(1,1)"><rect fill="#ffffff" stroke="none" x="336" y="536" width="223.95703125" height="235"/></g><g transform="translate(-62,-62) scale(1,1)"><path fill="none" stroke="#000000" d="M 336 536 L 559.95703125 536 L 559.95703125 771 L 336 771 L 336 536 Z Z" stroke-miterlimit="10"/></g><g transform="translate(-62,-62) scale(1,1)"><path fill="none" stroke="#000000" d="M 336 561 L 559.95703125 561" stroke-miterlimit="10"/></g><g transform="translate(-62,-62) scale(1,1)"><path fill="none" stroke="#000000" d="M 336 644 L 559.95703125 644" stroke-miterlimit="10"/></g><g transform="translate(-62,-62) scale(1,1)"><g><path fill="none" stroke="none"/><text fill="#000000" stroke="none" font-family="Arial" font-size="13px" font-style="normal" font-weight="bold" text-decoration="none" x="428.107177734375" y="555.5">Socket</text></g></g><g transform="translate(-62,-62) scale(1,1)"><g><path fill="none" stroke="none"/><text fill="#000000" stroke="none" font-family="Arial" font-size="13px" font-style="normal" font-weight="normal" text-decoration="none" x="341" y="578.5">+int localSock_</text></g></g><g transform="translate(-62,-62) scale(1,1)"><g><path fill="none" stroke="none"/><text fill="#000000" stroke="none" font-family="Arial" font-size="13px" font-style="normal" font-weight="normal" text-decoration="none" x="341" y="593.5">+bool epollOut_</text></g></g><g transform="translate(-62,-62) scale(1,1)"><g><path fill="none" stroke="none"/><text fill="#000000" stroke="none" font-family="Arial" font-size="13px" font-style="normal" font-weight="normal" text-decoration="none" x="341" y="608.5">+ std::atomic&lt;bool&gt; invalid_</text></g></g><g transform="translate(-62,-62) scale(1,1)"><g><path fill="none" stroke="none"/><text fill="#000000" stroke="none" font-family="Arial" font-size="13px" font-style="normal" font-weight="normal" text-decoration="none" x="341" y="623.5">+std::size_t id_</text></g></g><g transform="translate(-62,-62) scale(1,1)"><g><path fill="none" stroke="none"/><text fill="#000000" stroke="none" font-family="Arial" font-size="13px" font-style="normal" font-weight="normal" text-decoration="none" x="341" y="638.5">+static std::atomic&lt;std::size_t&gt; sid_</text></g></g><g transform="translate(-62,-62) scale(1,1)"><g><path fill="none" stroke="none"/><text fill="#000000" stroke="none" font-family="Arial" font-size="13px" font-style="normal" font-weight="normal" text-decoration="none" x="341" y="661.5">+virtual ~Socket()</text></g></g><g transform="translate(-62,-62) scale(1,1)"><g><path fill="none" stroke="none"/><text fill="#000000" stroke="none" font-family="Arial" font-size="13px" font-style="normal" font-weight="normal" text-decoration="none" x="341" y="676.5">+virtual SocketType GetSocketType()</text></g></g><g transform="translate(-62,-62) scale(1,1)"><g><path fill="none" stroke="none"/><text fill="#000000" stroke="none" font-family="Arial" font-size="13px" font-style="normal" font-weight="normal" text-decoration="none" x="341" y="691.5">+bool Invalid()</text></g></g><g transform="translate(-62,-62) scale(1,1)"><g><path fill="none" stroke="none"/><text fill="#000000" stroke="none" font-family="Arial" font-size="13px" font-style="normal" font-weight="normal" text-decoration="none" x="341" y="706.5">+int GetSocket()</text></g></g><g transform="translate(-62,-62) scale(1,1)"><g><path fill="none" stroke="none"/><text fill="#000000" stroke="none" font-family="Arial" font-size="13px" font-style="normal" font-weight="normal" text-decoration="none" x="341" y="721.5">+std::size_t GetID()</text></g></g><g transform="translate(-62,-62) scale(1,1)"><g><path fill="none" stroke="none"/><text fill="#000000" stroke="none" font-family="Arial" font-size="13px" font-style="normal" font-weight="normal" text-decoration="none" x="341" y="736.5">+virtual bool OnReadable()</text></g></g><g transform="translate(-62,-62) scale(1,1)"><g><path fill="none" stroke="none"/><text fill="#000000" stroke="none" font-family="Arial" font-size="13px" font-style="normal" font-weight="normal" text-decoration="none" x="341" y="751.5">+virtual bool OnWritable()</text></g></g><g transform="translate(-62,-62) scale(1,1)"><g><path fill="none" stroke="none"/><text fill="#000000" stroke="none" font-family="Arial" font-size="13px" font-style="normal" font-weight="normal" text-decoration="none" x="341" y="766.5">+Socket()</text></g></g><g transform="translate(-62,-62) scale(1,1)"><rect fill="#C0C0C0" stroke="none" x="79" y="839" width="273.11328125" height="145" opacity="0.2"/></g><g transform="translate(-62,-62) scale(1,1)"><rect fill="#ffffff" stroke="none" x="72" y="832" width="273.11328125" height="145"/></g><g transform="translate(-62,-62) scale(1,1)"><path fill="none" stroke="#000000" d="M 72 832 L 345.11328125 832 L 345.11328125 977 L 72 977 L 72 832 Z Z" stroke-miterlimit="10"/></g><g transform="translate(-62,-62) scale(1,1)"><path fill="none" stroke="#000000" d="M 72 857 L 345.11328125 857" stroke-miterlimit="10"/></g><g transform="translate(-62,-62) scale(1,1)"><path fill="none" stroke="#000000" d="M 72 910 L 345.11328125 910" stroke-miterlimit="10"/></g><g transform="translate(-62,-62) scale(1,1)"><g><path fill="none" stroke="none"/><text fill="#000000" stroke="none" font-family="Arial" font-size="13px" font-style="normal" font-weight="bold" text-decoration="none" x="167.73486328125" y="851.5">StreamSocket</text></g></g><g transform="translate(-62,-62) scale(1,1)"><g><path fill="none" stroke="none"/><text fill="#000000" stroke="none" font-family="Arial" font-size="13px" font-style="normal" font-weight="normal" text-decoration="none" x="77" y="874.5">+Buffer recvBuf_</text></g></g><g transform="translate(-62,-62) scale(1,1)"><g><path fill="none" stroke="none"/><text fill="#000000" stroke="none" font-family="Arial" font-size="13px" font-style="normal" font-weight="normal" text-decoration="none" x="77" y="889.5">+AsyncBuffer sendBuf_</text></g></g><g transform="translate(-62,-62) scale(1,1)"><g><path fill="none" stroke="none"/><text fill="#000000" stroke="none" font-family="Arial" font-size="13px" font-style="normal" font-weight="normal" text-decoration="none" x="77" y="904.5">+SocketAddr peerAddr_</text></g></g><g transform="translate(-62,-62) scale(1,1)"><g><path fill="none" stroke="none"/><text fill="#000000" stroke="none" font-family="Arial" font-size="13px" font-style="normal" font-weight="normal" text-decoration="none" x="77" y="927.5">+StreamSocket()</text></g></g><g transform="translate(-62,-62) scale(1,1)"><g><path fill="none" stroke="none"/><text fill="#000000" stroke="none" font-family="Arial" font-size="13px" font-style="normal" font-weight="normal" text-decoration="none" x="77" y="942.5">+~StreamSocket()</text></g></g><g transform="translate(-62,-62) scale(1,1)"><g><path fill="none" stroke="none"/><text fill="#000000" stroke="none" font-family="Arial" font-size="13px" font-style="normal" font-weight="normal" text-decoration="none" x="77" y="957.5">+bool Init(int localfd, const SocketAddr&amp; peer)</text></g></g><g transform="translate(-62,-62) scale(1,1)"><g><path fill="none" stroke="none"/><text fill="#000000" stroke="none" font-family="Arial" font-size="13px" font-style="normal" font-weight="normal" text-decoration="none" x="77" y="972.5">+SocketType GetSocketType()</text></g></g><g transform="translate(-62,-62) scale(1,1)"><path fill="none" stroke="#000000" d="M 278 831 L 335 771" stroke-miterlimit="10"/></g><g transform="translate(-62,-62) scale(1,1)"><path fill="#FFFFFF" stroke="none" d="M 327.1047222980292 791.5344732099161 L 335 771 L 314.8971303427603 779.9372608524106"/></g><g transform="translate(-62,-62) scale(1,1)"><path fill="none" stroke="#000000" d="M 327.1047222980292 791.5344732099161 L 335 771 L 314.8971303427603 779.9372608524106 L 327.1047222980292 791.5344732099161" stroke-miterlimit="10"/></g><g transform="translate(-62,-62) scale(1,1)"><g><path fill="none" stroke="none"/><text fill="#000000" stroke="none" font-family="Arial" font-size="13px" font-style="normal" font-weight="normal" text-decoration="none" x="278.5" y="796.5">+继承</text></g></g><g transform="translate(-62,-62) scale(1,1)"><rect fill="#C0C0C0" stroke="none" x="647" y="847" width="163.29248046875" height="220" opacity="0.2"/></g><g transform="translate(-62,-62) scale(1,1)"><rect fill="#ffffff" stroke="none" x="640" y="840" width="163.29248046875" height="220"/></g><g transform="translate(-62,-62) scale(1,1)"><path fill="none" stroke="#000000" d="M 640 840 L 803.29248046875 840 L 803.29248046875 1060 L 640 1060 L 640 840 Z Z" stroke-miterlimit="10"/></g><g transform="translate(-62,-62) scale(1,1)"><path fill="none" stroke="#000000" d="M 640 865 L 803.29248046875 865" stroke-miterlimit="10"/></g><g transform="translate(-62,-62) scale(1,1)"><path fill="none" stroke="#000000" d="M 640 933 L 803.29248046875 933" stroke-miterlimit="10"/></g><g transform="translate(-62,-62) scale(1,1)"><g><path fill="none" stroke="none"/><text fill="#000000" stroke="none" font-family="Arial" font-size="13px" font-style="normal" font-weight="bold" text-decoration="none" x="684.429931640625" y="859.5">ListenSocket</text></g></g><g transform="translate(-62,-62) scale(1,1)"><g><path fill="none" stroke="none"/><text fill="#000000" stroke="none" font-family="Arial" font-size="13px" font-style="normal" font-weight="normal" text-decoration="none" x="645" y="882.5">+sockaddr_in addrClient_</text></g></g><g transform="translate(-62,-62) scale(1,1)"><g><path fill="none" stroke="none"/><text fill="#000000" stroke="none" font-family="Arial" font-size="13px" font-style="normal" font-weight="normal" text-decoration="none" x="645" y="897.5">+unsigned short localPort_</text></g></g><g transform="translate(-62,-62) scale(1,1)"><g><path fill="none" stroke="none"/><text fill="#000000" stroke="none" font-family="Arial" font-size="13px" font-style="normal" font-weight="normal" text-decoration="none" x="645" y="912.5">+const int tag_</text></g></g><g transform="translate(-62,-62) scale(1,1)"><g><path fill="none" stroke="none"/><text fill="#000000" stroke="none" font-family="Arial" font-size="13px" font-style="normal" font-weight="normal" text-decoration="none" x="645" y="927.5">+static const int LISTENQ</text><path fill="none" stroke="#000000" d="M 645 927.5 L 794.1953125 927.5" stroke-miterlimit="10"/></g></g><g transform="translate(-62,-62) scale(1,1)"><g><path fill="none" stroke="none"/><text fill="#000000" stroke="none" font-family="Arial" font-size="13px" font-style="normal" font-weight="normal" text-decoration="none" x="645" y="950.5">+GetSocketType()</text></g></g><g transform="translate(-62,-62) scale(1,1)"><g><path fill="none" stroke="none"/><text fill="#000000" stroke="none" font-family="Arial" font-size="13px" font-style="normal" font-weight="normal" text-decoration="none" x="645" y="965.5">+ListenSocket()</text></g></g><g transform="translate(-62,-62) scale(1,1)"><g><path fill="none" stroke="none"/><text fill="#000000" stroke="none" font-family="Arial" font-size="13px" font-style="normal" font-weight="normal" text-decoration="none" x="645" y="980.5">+~ListenSocket()</text></g></g><g transform="translate(-62,-62) scale(1,1)"><g><path fill="none" stroke="none"/><text fill="#000000" stroke="none" font-family="Arial" font-size="13px" font-style="normal" font-weight="normal" text-decoration="none" x="645" y="995.5">+int _Accept()</text></g></g><g transform="translate(-62,-62) scale(1,1)"><g><path fill="none" stroke="none"/><text fill="#000000" stroke="none" font-family="Arial" font-size="13px" font-style="normal" font-weight="normal" text-decoration="none" x="645" y="1010.5">+bool Bind()</text></g></g><g transform="translate(-62,-62) scale(1,1)"><g><path fill="none" stroke="none"/><text fill="#000000" stroke="none" font-family="Arial" font-size="13px" font-style="normal" font-weight="normal" text-decoration="none" x="645" y="1025.5">+bool OnReadable()</text></g></g><g transform="translate(-62,-62) scale(1,1)"><g><path fill="none" stroke="none"/><text fill="#000000" stroke="none" font-family="Arial" font-size="13px" font-style="normal" font-weight="normal" text-decoration="none" x="645" y="1040.5">+bool OnWriteable()</text></g></g><g transform="translate(-62,-62) scale(1,1)"><g><path fill="none" stroke="none"/><text fill="#000000" stroke="none" font-family="Arial" font-size="13px" font-style="normal" font-weight="normal" text-decoration="none" x="645" y="1055.5">+bool OnError()</text></g></g><g transform="translate(-62,-62) scale(1,1)"><path fill="none" stroke="#000000" d="M 639 860 L 592 808 L 558 772" stroke-miterlimit="10"/></g><g transform="translate(-62,-62) scale(1,1)"><path fill="#FFFFFF" stroke="none" d="M 578.0766129792381 780.9960886657418 L 558 772 L 565.8351138811756 792.5575044805786"/></g><g transform="translate(-62,-62) scale(1,1)"><path fill="none" stroke="#000000" d="M 578.0766129792381 780.9960886657418 L 558 772 L 565.8351138811756 792.5575044805786 L 578.0766129792381 780.9960886657418" stroke-miterlimit="10"/></g><g transform="translate(-62,-62) scale(1,1)"><g><path fill="none" stroke="none"/><text fill="#000000" stroke="none" font-family="Arial" font-size="13px" font-style="normal" font-weight="normal" text-decoration="none" x="542.5" y="822.5">+继承</text></g></g></g></svg>